<svg xmlns="http://www.w3.org/2000/svg" width="188" viewBox="0 0 188 25" fill="none" class="marque-logo" xmlns:xlink="http://www.w3.org/1999/xlink" height="25"><g clip-path="url(#clip0_57240_137)" fill="none"><path fill-rule="evenodd" clip-rule="evenodd" d="M14.6474 0C14.8898 0 15.1308 0.00583224 15.3703 0.0175202C15.3751 0.0177535 15.3791 0.013927 15.3791 0.00912287C15.3791 0.00448103 15.3829 0.000718063 15.3875 0.000718063H28.7771C29.0631 0.000862281 29.2949 0.233416 29.2949 0.520594C29.2949 0.658475 29.2403 0.790719 29.1433 0.888244L25.6323 4.41176H33.1197C33.6146 4.41176 34.0671 4.70434 34.2396 5.17002C34.8306 6.76562 35.1539 8.49194 35.1539 10.2941C35.1539 18.4159 28.596 25 20.5064 25C20.2642 25 20.0233 24.9935 19.7839 24.9817C19.779 24.9816 19.7748 24.9855 19.7748 24.9905C19.7748 24.9954 19.7709 24.9993 19.766 24.9993H6.37681C6.09079 24.9991 5.85898 24.7666 5.85898 24.4794C5.85899 24.3415 5.91352 24.2092 6.0106 24.1117L9.52015 20.5882H2.03412C1.53926 20.5882 1.08676 20.2957 0.914278 19.83C0.32329 18.2344 0 16.5081 0 14.7059C0 6.58406 6.5579 0 14.6474 0ZM19.6596 10.4097C18.4507 8.98938 16.6542 8.08825 14.6474 8.08825C11.0071 8.08825 8.05611 11.0511 8.05611 14.7059C8.05611 15.4795 8.18933 16.2217 8.4323 16.9118H13.182L15.4942 14.5903C16.7032 16.0106 18.4996 16.9118 20.5064 16.9118C24.1467 16.9118 27.0978 13.9489 27.0978 10.2941C27.0978 9.5205 26.9646 8.77831 26.7216 8.08825H21.9719L19.6596 10.4097Z" fill="currentColor"></path><path d="M181.16 18.8582V10.064C181.16 9.81061 180.933 9.58248 180.68 9.58248H180.352C180.151 9.58248 179.974 9.70923 179.898 9.88661L176.844 17.1349C176.415 18.1993 175.38 18.8582 174.244 18.8582C173.108 18.8582 172.098 18.1993 171.669 17.1349L168.589 9.88661C168.539 9.70923 168.362 9.58248 168.16 9.58248H167.832C167.58 9.58248 167.352 9.81061 167.352 10.064V18.8582H164.5V10.064C164.5 8.21398 165.99 6.69336 167.832 6.69336H168.16C169.498 6.69336 170.71 7.50436 171.24 8.77148L174.244 15.9184L177.248 8.77148C177.778 7.50436 178.99 6.69336 180.352 6.69336H180.68C182.524 6.69336 184.013 8.21398 184.013 10.064V18.8582H181.16Z" fill="currentColor"></path><path d="M151.481 18.8582C148.578 18.8582 146.23 16.5013 146.23 13.5868V6.69336H149.083V13.5868C149.083 14.9047 150.169 15.9944 151.481 15.9944H157.54C158.852 15.9944 159.938 14.9047 159.938 13.5868V6.69336H162.79V13.5868C162.79 16.5013 160.443 18.8582 157.54 18.8582H151.481Z" fill="currentColor"></path><path d="M140.976 15.9944C141.456 15.9944 141.86 15.5889 141.86 15.1074C141.86 14.6259 141.481 14.2457 141.026 14.2204H134.287C132.217 14.2204 130.551 12.5477 130.551 10.4695C130.551 8.39136 132.217 6.69336 134.287 6.69336H144.737V9.58248H134.287C133.807 9.58248 133.403 9.98798 133.403 10.4695C133.403 10.951 133.807 11.3565 134.287 11.3565H141.077C143.096 11.4072 144.737 13.0546 144.737 15.1074C144.737 17.1856 143.046 18.8582 140.976 18.8582H130.551V15.9944H140.976Z" fill="currentColor"></path><path d="M114.531 18.8582V10.064C114.531 8.21398 116.021 6.69336 117.864 6.69336H125.209C127.582 6.69336 129.5 8.6448 129.5 11.0271C129.5 13.4094 127.582 15.3609 125.209 15.3609H117.384V18.8582H114.531ZM117.384 10.064V12.4717H125.209C125.992 12.4717 126.648 11.8127 126.648 11.0271C126.648 10.2414 125.992 9.58248 125.209 9.58248H117.864C117.611 9.58248 117.384 9.81061 117.384 10.064Z" fill="currentColor"></path><path d="M109.727 6.69336H112.579V18.8582H109.727V6.69336Z" fill="currentColor"></path><path d="M102.172 15.9944C103.94 15.9944 105.378 14.5499 105.378 12.7758C105.378 11.0271 103.94 9.58248 102.172 9.58248H97.7296C95.9629 9.58248 94.5242 11.0271 94.5242 12.7758C94.5242 14.5499 95.9629 15.9944 97.7296 15.9944H102.172ZM102.172 6.69336C105.53 6.69336 108.231 9.43042 108.231 12.7758C108.231 16.1465 105.53 18.8582 102.172 18.8582H97.7296C94.3724 18.8582 91.6719 16.1465 91.6719 12.7758C91.6719 9.43042 94.3724 6.69336 97.7296 6.69336H102.172Z" fill="currentColor"></path><path d="M80.5701 18.8582C77.2128 18.8582 74.5117 16.1465 74.5117 12.7758C74.5117 9.43042 77.2128 6.69336 80.5701 6.69336H89.3295V9.58248H80.5701C78.8033 9.58248 77.3647 11.0271 77.3647 12.7758C77.3647 14.5499 78.8033 15.9944 80.5701 15.9944H87.0075C87.4868 15.9944 87.8908 15.5889 87.8908 15.1074C87.8908 14.6259 87.4868 14.2204 87.0075 14.2204H80.0907V11.3565H87.0075C89.0774 11.3565 90.7681 13.0292 90.7681 15.1074C90.7681 17.1856 89.0774 18.8582 87.0075 18.8582H80.5701Z" fill="currentColor"></path><path d="M67.513 15.9944C69.2797 15.9944 70.7183 14.5499 70.7183 12.7758C70.7183 11.0271 69.2797 9.58248 67.513 9.58248H63.0701C61.303 9.58248 59.8642 11.0271 59.8642 12.7758C59.8642 14.5499 61.303 15.9944 63.0701 15.9944H67.513ZM67.513 6.69336C70.8702 6.69336 73.5707 9.43042 73.5707 12.7758C73.5707 16.1465 70.8702 18.8582 67.513 18.8582H63.0701C59.7127 18.8582 57.0117 16.1465 57.0117 12.7758C57.0117 9.43042 59.7127 6.69336 63.0701 6.69336H67.513Z" fill="currentColor"></path><path d="M45.329 15.5127C45.329 15.7662 45.5562 15.9943 45.8086 15.9943H56.4864V18.8581H45.8086C43.9659 18.8581 42.4766 17.3629 42.4766 15.5127V6.61719H45.329V15.5127Z" fill="currentColor"></path><path d="M187.488 6.61708C187.488 7.42927 186.832 8.08764 186.023 8.08764C185.214 8.08764 184.559 7.42927 184.559 6.61708C184.559 5.80489 185.214 5.14648 186.023 5.14648C186.832 5.14648 187.488 5.80489 187.488 6.61708Z" fill="currentColor"></path></g><defs><clipPath id="clip0_57240_137"><rect width="188" height="25" fill="currentColor"></rect></clipPath></defs></svg>